<mxfile host="app.diagrams.net" modified="2023-12-17T16:03:19.891Z" agent="Mozilla/5.0 (Windows NT 10.0; Win64; x64) AppleWebKit/537.36 (KHTML, like Gecko) Chrome/120.0.0.0 Safari/537.36" version="22.1.11" etag="pKLLCZEshJCyT2Wwp6TJ" type="device">
  <diagram id="FAaVv330t_leghSY05Uy" name="Страница — 1">
    <mxGraphModel dx="3225" dy="1393" grid="1" gridSize="10" guides="1" tooltips="1" connect="1" arrows="1" fold="1" page="1" pageScale="1" pageWidth="827" pageHeight="1169" math="0" shadow="0">
      <root>
        <mxCell id="0" />
        <mxCell id="1" parent="0" />
        <mxCell id="2OcuWYiTyYVXsL0miK5u-1" value="Користувач" style="shape=umlActor;verticalLabelPosition=bottom;verticalAlign=top;html=1;outlineConnect=0;" vertex="1" parent="1">
          <mxGeometry x="79" y="580" width="30" height="60" as="geometry" />
        </mxCell>
        <mxCell id="2OcuWYiTyYVXsL0miK5u-19" style="edgeStyle=orthogonalEdgeStyle;rounded=0;orthogonalLoop=1;jettySize=auto;html=1;exitX=0.5;exitY=0.5;exitDx=0;exitDy=0;exitPerimeter=0;" edge="1" parent="1" source="2OcuWYiTyYVXsL0miK5u-2" target="2OcuWYiTyYVXsL0miK5u-1">
          <mxGeometry relative="1" as="geometry" />
        </mxCell>
        <mxCell id="2OcuWYiTyYVXsL0miK5u-20" style="edgeStyle=orthogonalEdgeStyle;rounded=0;orthogonalLoop=1;jettySize=auto;html=1;exitX=0.5;exitY=0.5;exitDx=0;exitDy=0;exitPerimeter=0;entryX=0;entryY=0.5;entryDx=0;entryDy=0;" edge="1" parent="1" source="2OcuWYiTyYVXsL0miK5u-2" target="2OcuWYiTyYVXsL0miK5u-12">
          <mxGeometry relative="1" as="geometry" />
        </mxCell>
        <mxCell id="2OcuWYiTyYVXsL0miK5u-2" value="Поет" style="shape=umlActor;verticalLabelPosition=bottom;verticalAlign=top;html=1;outlineConnect=0;" vertex="1" parent="1">
          <mxGeometry x="169" y="470" width="30" height="60" as="geometry" />
        </mxCell>
        <mxCell id="2OcuWYiTyYVXsL0miK5u-17" style="edgeStyle=orthogonalEdgeStyle;rounded=0;orthogonalLoop=1;jettySize=auto;html=1;exitX=0.5;exitY=0.5;exitDx=0;exitDy=0;exitPerimeter=0;" edge="1" parent="1" source="2OcuWYiTyYVXsL0miK5u-3" target="2OcuWYiTyYVXsL0miK5u-11">
          <mxGeometry relative="1" as="geometry" />
        </mxCell>
        <mxCell id="2OcuWYiTyYVXsL0miK5u-3" value="Робітник" style="shape=umlActor;verticalLabelPosition=bottom;verticalAlign=top;html=1;outlineConnect=0;" vertex="1" parent="1">
          <mxGeometry x="719" y="590" width="30" height="60" as="geometry" />
        </mxCell>
        <mxCell id="2OcuWYiTyYVXsL0miK5u-21" style="edgeStyle=orthogonalEdgeStyle;rounded=0;orthogonalLoop=1;jettySize=auto;html=1;exitX=0.5;exitY=0.5;exitDx=0;exitDy=0;exitPerimeter=0;entryX=0;entryY=0.5;entryDx=0;entryDy=0;" edge="1" parent="1" source="2OcuWYiTyYVXsL0miK5u-4" target="2OcuWYiTyYVXsL0miK5u-14">
          <mxGeometry relative="1" as="geometry" />
        </mxCell>
        <mxCell id="2OcuWYiTyYVXsL0miK5u-4" value="Сервіс E-pay" style="shape=umlActor;verticalLabelPosition=bottom;verticalAlign=top;html=1;outlineConnect=0;" vertex="1" parent="1">
          <mxGeometry x="159" y="670" width="30" height="60" as="geometry" />
        </mxCell>
        <mxCell id="2OcuWYiTyYVXsL0miK5u-6" value="frame" style="shape=umlFrame;whiteSpace=wrap;html=1;pointerEvents=0;" vertex="1" parent="1">
          <mxGeometry x="229" y="310" width="400" height="630" as="geometry" />
        </mxCell>
        <mxCell id="2OcuWYiTyYVXsL0miK5u-8" value="Отримати список товарів" style="ellipse;whiteSpace=wrap;html=1;" vertex="1" parent="1">
          <mxGeometry x="289" y="340" width="120" height="80" as="geometry" />
        </mxCell>
        <mxCell id="2OcuWYiTyYVXsL0miK5u-9" value="Створити замовлення" style="ellipse;whiteSpace=wrap;html=1;" vertex="1" parent="1">
          <mxGeometry x="289" y="470" width="120" height="80" as="geometry" />
        </mxCell>
        <mxCell id="2OcuWYiTyYVXsL0miK5u-10" value="Авторизувати користувача" style="ellipse;whiteSpace=wrap;html=1;" vertex="1" parent="1">
          <mxGeometry x="479" y="470" width="120" height="80" as="geometry" />
        </mxCell>
        <mxCell id="2OcuWYiTyYVXsL0miK5u-11" value="Сповістити про успішність замовлення" style="ellipse;whiteSpace=wrap;html=1;" vertex="1" parent="1">
          <mxGeometry x="479" y="660" width="120" height="80" as="geometry" />
        </mxCell>
        <mxCell id="2OcuWYiTyYVXsL0miK5u-12" value="Об&#39;єднати замовлення" style="ellipse;whiteSpace=wrap;html=1;" vertex="1" parent="1">
          <mxGeometry x="289" y="590" width="120" height="80" as="geometry" />
        </mxCell>
        <mxCell id="2OcuWYiTyYVXsL0miK5u-13" value="Оплатити замовлення" style="ellipse;whiteSpace=wrap;html=1;" vertex="1" parent="1">
          <mxGeometry x="289" y="700" width="120" height="80" as="geometry" />
        </mxCell>
        <mxCell id="2OcuWYiTyYVXsL0miK5u-14" value="E-pay сплата" style="ellipse;whiteSpace=wrap;html=1;" vertex="1" parent="1">
          <mxGeometry x="289" y="820" width="120" height="80" as="geometry" />
        </mxCell>
        <mxCell id="2OcuWYiTyYVXsL0miK5u-18" style="edgeStyle=orthogonalEdgeStyle;rounded=0;orthogonalLoop=1;jettySize=auto;html=1;exitX=0.5;exitY=0;exitDx=0;exitDy=0;exitPerimeter=0;entryX=0.5;entryY=0;entryDx=0;entryDy=0;entryPerimeter=0;" edge="1" parent="1" source="2OcuWYiTyYVXsL0miK5u-3" target="2OcuWYiTyYVXsL0miK5u-1">
          <mxGeometry relative="1" as="geometry">
            <Array as="points">
              <mxPoint x="734" y="270" />
              <mxPoint x="94" y="270" />
            </Array>
          </mxGeometry>
        </mxCell>
        <mxCell id="2OcuWYiTyYVXsL0miK5u-24" value="&amp;lt;&amp;lt;extend&amp;gt;&amp;gt;" style="html=1;verticalAlign=bottom;labelBackgroundColor=none;endArrow=open;endFill=0;dashed=1;rounded=0;exitX=0.5;exitY=0;exitDx=0;exitDy=0;entryX=0.5;entryY=1;entryDx=0;entryDy=0;" edge="1" parent="1" source="2OcuWYiTyYVXsL0miK5u-14" target="2OcuWYiTyYVXsL0miK5u-13">
          <mxGeometry y="-50" width="160" relative="1" as="geometry">
            <mxPoint x="349" y="770" as="sourcePoint" />
            <mxPoint x="509" y="770" as="targetPoint" />
            <mxPoint as="offset" />
          </mxGeometry>
        </mxCell>
        <mxCell id="2OcuWYiTyYVXsL0miK5u-25" value="&amp;lt;&amp;lt;include&amp;gt;&amp;gt;" style="html=1;verticalAlign=bottom;labelBackgroundColor=none;endArrow=open;endFill=0;dashed=1;rounded=0;exitX=1;exitY=0.5;exitDx=0;exitDy=0;entryX=0.5;entryY=0;entryDx=0;entryDy=0;" edge="1" parent="1" source="2OcuWYiTyYVXsL0miK5u-8" target="2OcuWYiTyYVXsL0miK5u-10">
          <mxGeometry x="0.048" y="21" width="160" relative="1" as="geometry">
            <mxPoint x="339" y="630" as="sourcePoint" />
            <mxPoint x="499" y="630" as="targetPoint" />
            <mxPoint as="offset" />
          </mxGeometry>
        </mxCell>
        <mxCell id="2OcuWYiTyYVXsL0miK5u-26" value="&amp;lt;&amp;lt;include&amp;gt;&amp;gt;" style="html=1;verticalAlign=bottom;labelBackgroundColor=none;endArrow=open;endFill=0;dashed=1;rounded=0;exitX=1;exitY=0.5;exitDx=0;exitDy=0;entryX=0;entryY=0.5;entryDx=0;entryDy=0;" edge="1" parent="1" source="2OcuWYiTyYVXsL0miK5u-9" target="2OcuWYiTyYVXsL0miK5u-10">
          <mxGeometry x="0.048" y="21" width="160" relative="1" as="geometry">
            <mxPoint x="419" y="390" as="sourcePoint" />
            <mxPoint x="549" y="480" as="targetPoint" />
            <mxPoint as="offset" />
          </mxGeometry>
        </mxCell>
        <mxCell id="2OcuWYiTyYVXsL0miK5u-27" value="&amp;lt;&amp;lt;include&amp;gt;&amp;gt;" style="html=1;verticalAlign=bottom;labelBackgroundColor=none;endArrow=open;endFill=0;dashed=1;rounded=0;exitX=0.985;exitY=0.437;exitDx=0;exitDy=0;exitPerimeter=0;" edge="1" parent="1" source="2OcuWYiTyYVXsL0miK5u-12">
          <mxGeometry x="0.048" y="21" width="160" relative="1" as="geometry">
            <mxPoint x="429" y="400" as="sourcePoint" />
            <mxPoint x="499" y="540" as="targetPoint" />
            <mxPoint as="offset" />
          </mxGeometry>
        </mxCell>
        <mxCell id="2OcuWYiTyYVXsL0miK5u-28" value="&amp;lt;&amp;lt;include&amp;gt;&amp;gt;" style="html=1;verticalAlign=bottom;labelBackgroundColor=none;endArrow=open;endFill=0;dashed=1;rounded=0;exitX=1;exitY=0.5;exitDx=0;exitDy=0;entryX=0.324;entryY=0.99;entryDx=0;entryDy=0;entryPerimeter=0;" edge="1" parent="1" source="2OcuWYiTyYVXsL0miK5u-13" target="2OcuWYiTyYVXsL0miK5u-10">
          <mxGeometry x="0.048" y="21" width="160" relative="1" as="geometry">
            <mxPoint x="439" y="410" as="sourcePoint" />
            <mxPoint x="569" y="500" as="targetPoint" />
            <mxPoint as="offset" />
          </mxGeometry>
        </mxCell>
        <mxCell id="2OcuWYiTyYVXsL0miK5u-29" value="&amp;lt;&amp;lt;include&amp;gt;&amp;gt;" style="html=1;verticalAlign=bottom;labelBackgroundColor=none;endArrow=open;endFill=0;dashed=1;rounded=0;exitX=0;exitY=0;exitDx=0;exitDy=0;entryX=0.5;entryY=1;entryDx=0;entryDy=0;" edge="1" parent="1" source="2OcuWYiTyYVXsL0miK5u-11" target="2OcuWYiTyYVXsL0miK5u-10">
          <mxGeometry x="0.6626" y="-29" width="160" relative="1" as="geometry">
            <mxPoint x="449" y="420" as="sourcePoint" />
            <mxPoint x="579" y="510" as="targetPoint" />
            <mxPoint as="offset" />
          </mxGeometry>
        </mxCell>
        <mxCell id="2OcuWYiTyYVXsL0miK5u-30" style="edgeStyle=orthogonalEdgeStyle;rounded=0;orthogonalLoop=1;jettySize=auto;html=1;exitX=0.5;exitY=0.5;exitDx=0;exitDy=0;exitPerimeter=0;entryX=0.04;entryY=0.691;entryDx=0;entryDy=0;entryPerimeter=0;" edge="1" parent="1" target="2OcuWYiTyYVXsL0miK5u-10">
          <mxGeometry relative="1" as="geometry">
            <mxPoint x="91.36000000000011" y="579.97" as="sourcePoint" />
            <mxPoint x="479.0000000000001" y="494.05000000000007" as="targetPoint" />
            <Array as="points">
              <mxPoint x="484" y="580" />
            </Array>
          </mxGeometry>
        </mxCell>
      </root>
    </mxGraphModel>
  </diagram>
</mxfile>
